<svg xmlns="http://www.w3.org/2000/svg" viewBox="0 0 103 100"><defs><style>.cls-1{fill:#1a237e;}</style></defs><title>Asset 15</title><g id="Layer_2" data-name="Layer 2"><g id="Layer_1-2" data-name="Layer 1"><path class="cls-1" d="M79.2,52.4a23.68,23.68,0,0,0-15.71,6,20.75,20.75,0,0,0-13.65-6.85A13.57,13.57,0,0,1,40,56.23a13.43,13.43,0,0,1-9.87-4.71,20.76,20.76,0,0,0-17.89,14l-1.51,4.34a4.09,4.09,0,0,0,3.87,5.38H55.42c0,.33,0,.66,0,1A23.8,23.8,0,1,0,79.2,52.4ZM91.1,78.58H81.58V88.1H76.82V78.58H67.3V74.65a4.07,4.07,0,0,0,1-.83h8.5V64.3h4.76v9.52H91.1Z"/><path class="cls-1" d="M49.54,11.87A7.51,7.51,0,0,0,43.43,15,16.23,16.23,0,0,1,54.19,25.25a7.5,7.5,0,0,0-4.65-13.38Z"/><path class="cls-1" d="M36.11,12.27a15.16,15.16,0,0,0-1,2.36,17.53,17.53,0,0,1,5.68-.16A10,10,0,1,1,55,27.81a23.69,23.69,0,0,1,.6,5.38v.08c.36-.16.74-.28,1.09-.46L59,35.13a1.6,1.6,0,0,0,2.25,0l4.07-4.07h0a1.59,1.59,0,0,0,0-2.25L63,26.5a15.61,15.61,0,0,0,1.1-2.64h3.27a1.59,1.59,0,0,0,1.58-1.6V16.5a1.59,1.59,0,0,0-1.59-1.59H64.06A15.24,15.24,0,0,0,63,12.28L65.28,10a1.6,1.6,0,0,0,0-2.25L61.21,3.64h0a1.59,1.59,0,0,0-2.25,0L56.65,6A15,15,0,0,0,54,4.86V1.59A1.6,1.6,0,0,0,52.42,0H46.66a1.59,1.59,0,0,0-1.59,1.59V4.86A14.89,14.89,0,0,0,42.43,6L40.12,3.64a1.59,1.59,0,0,0-2.24,0L33.79,7.7h0a1.59,1.59,0,0,0,0,2.25Z"/><path class="cls-1" d="M14.58,42.57a8.18,8.18,0,0,0,2.94,11.19A24.6,24.6,0,0,1,29.26,48a29.6,29.6,0,0,1-3.5-8.38A8.18,8.18,0,0,0,14.58,42.57Z"/><path class="cls-1" d="M10.29,45.76A10.76,10.76,0,0,1,20.93,34.87a10.62,10.62,0,0,1,3.7.66,29.76,29.76,0,0,1-.31-4.24,23.36,23.36,0,0,1,.81-6.19A1.7,1.7,0,0,0,24,24.69H17.86a1.71,1.71,0,0,0-1.71,1.71v3.52a16,16,0,0,0-2.88,1.16l-2.5-2.49,0,0a1.71,1.71,0,0,0-2.42,0L3.93,33h0a1.71,1.71,0,0,0,0,2.42l2.49,2.49a16.27,16.27,0,0,0-1.18,2.85H1.71A1.71,1.71,0,0,0,0,42.49v6.22a1.72,1.72,0,0,0,1.72,1.67H5.25a16.19,16.19,0,0,0,1.18,2.85l-2.5,2.49a1.72,1.72,0,0,0,0,2.43l4.39,4.39a1.71,1.71,0,0,0,1.21.5,1.79,1.79,0,0,0,.57-.11,24.55,24.55,0,0,1,5-8.34A10.76,10.76,0,0,1,10.29,45.76Z"/><path class="cls-1" d="M39.93,52.4c7.3,0,13.22-10.43,13.22-20.16,0-20.15-26.44-20.2-26.44,0C26.71,42,32.63,52.4,39.93,52.4Z"/></g></g></svg>