<svg xmlns="http://www.w3.org/2000/svg" viewBox="0 0 112.48 100"><defs><style>.cls-1{fill:#1a237e;}</style></defs><title>Asset 12</title><g id="Layer_2" data-name="Layer 2"><g id="Layer_1-2" data-name="Layer 1"><rect class="cls-1" x="36.53" y="42.62" width="12.18" height="6.09"/><path class="cls-1" d="M85.24,19.79a7.59,7.59,0,0,0-7.61-7.61H60.88V4.57a4.41,4.41,0,0,0-1.34-3.23A4.41,4.41,0,0,0,56.32,0H28.92a4.41,4.41,0,0,0-3.23,1.34,4.41,4.41,0,0,0-1.34,3.23v7.61H7.61A7.34,7.34,0,0,0,2.22,14.4,7.34,7.34,0,0,0,0,19.79V38.05H85.24ZM54.79,12.18H30.44V6.09H54.79Z"/><path class="cls-1" d="M89.65,54.34a22.71,22.71,0,0,0-4.41.44V42.62h-32v7.61a3,3,0,0,1-3,3H35a3,3,0,0,1-3-3V42.62H0V65.45a7.34,7.34,0,0,0,2.22,5.39,7.34,7.34,0,0,0,5.39,2.22H67.2A22.83,22.83,0,1,0,89.65,54.34Zm11.42,25.11H91.93v9.13H87.37V79.45H78.23V74.89h9.13V65.75h4.57v9.13h9.13Z"/></g></g></svg>