<svg xmlns="http://www.w3.org/2000/svg" viewBox="0 0 95.52 100"><defs><style>.cls-1{fill:#1a237e;}</style></defs><title>Asset 10</title><g id="Layer_2" data-name="Layer 2"><g id="Layer_1-2" data-name="Layer 1"><path class="cls-1" d="M72.48,53.92a22.92,22.92,0,0,0-4,.36V15.8a5.06,5.06,0,0,0-1.56-3.7,5.06,5.06,0,0,0-3.7-1.56H57.93v-4A6.34,6.34,0,0,0,56,1.93,6.34,6.34,0,0,0,51.35,0H48.72a6.34,6.34,0,0,0-4.65,1.93,6.34,6.34,0,0,0-1.93,4.65v4H26.33v-4A6.34,6.34,0,0,0,24.4,1.93,6.34,6.34,0,0,0,19.75,0H17.12a6.34,6.34,0,0,0-4.65,1.93,6.34,6.34,0,0,0-1.93,4.65v4H5.27a5.06,5.06,0,0,0-3.7,1.56A5.06,5.06,0,0,0,0,15.8V68.47a5.06,5.06,0,0,0,1.56,3.7,5.06,5.06,0,0,0,3.7,1.56H49.67A23,23,0,1,0,72.48,53.92ZM63.2,54H51.35V40.82H63.2Zm0-27.65V38.18H51.35V26.33ZM17.12,68.47H5.27V56.62H17.12Zm0-14.48H5.27V40.82H17.12Zm0-15.8H5.27V26.33H17.12Zm-.93-18.82a1.26,1.26,0,0,1-.39-.93V6.58a1.33,1.33,0,0,1,1.32-1.32h2.63a1.34,1.34,0,0,1,1.32,1.32V18.43a1.34,1.34,0,0,1-1.32,1.32H17.12A1.26,1.26,0,0,1,16.19,19.36ZM32.92,68.47H19.75V56.62H32.92Zm0-14.48H19.75V40.82H32.92Zm0-15.8H19.75V26.33H32.92Zm15.8,30.28H35.55V56.62H48.72Zm0-14.48H35.55V40.82H48.72Zm0-15.8H35.55V26.33H48.72Zm-.93-18.82a1.26,1.26,0,0,1-.39-.93V6.58a1.33,1.33,0,0,1,1.32-1.32h2.63a1.33,1.33,0,0,1,1.32,1.32V18.43a1.33,1.33,0,0,1-1.32,1.32H48.72A1.26,1.26,0,0,1,47.79,19.36Zm3.56,37.26H61.7a23.27,23.27,0,0,0-10.35,11.2ZM84,79.26H74.79v9.22H70.18V79.26H61V74.65h9.22V65.44h4.61v9.22H84Z"/></g></g></svg>