<svg xmlns="http://www.w3.org/2000/svg" viewBox="0 0 100 100"><defs><style>.cls-1{fill:#1a237e;}</style></defs><title>Asset 16</title><g id="Layer_2" data-name="Layer 2"><g id="Layer_1-2" data-name="Layer 1"><path class="cls-1" d="M50,0a50,50,0,1,0,50,50A50,50,0,0,0,50,0ZM73.77,36,69,40.73l-9.67-9.67-3.67,3.67,9.67,9.67L41.64,68.11,32,58.44l-3.67,3.67L38,71.78l-2.36,2.36,0,0a1.87,1.87,0,0,1-1.19.86l-9,2a1.87,1.87,0,0,1-2.24-2.24l2-9A1.88,1.88,0,0,1,26,64.52l0,0L64.1,26.31a1.43,1.43,0,0,1,2,0L73.77,34A1.43,1.43,0,0,1,73.77,36Z"/></g></g></svg>