<svg xmlns="http://www.w3.org/2000/svg" viewBox="0 0 93.09 100"><defs><style>.cls-1{fill:#1a237e;}</style></defs><title>Asset 14</title><g id="Layer_2" data-name="Layer 2"><g id="Layer_1-2" data-name="Layer 1"><path class="cls-1" d="M70,53.92h-.5a36.84,36.84,0,1,0-22,18.24A23,23,0,1,0,70,53.92ZM47.86,14.15c4.76,0,8.62,4.81,8.62,10.75,0,4.47-2.19,8.3-5.3,9.92l.29,1.56c2.46,2.86,12.24,3.05,12.24,14.37H52.46c-2.21-2.88-5.27-4.32-7.48-5.36-.43-.2-.92-.43-1.35-.65A14.32,14.32,0,0,0,48,34.14c0-6.15-3.53-11.32-8.3-12.84C40.93,17.14,44.11,14.15,47.86,14.15ZM10,50.75c0-11.52,10.11-11.51,12.36-14.53l.26-1.37c-3.15-1.6-5.38-5.45-5.38-10,0-5.94,3.86-10.75,8.62-10.75,3.75,0,6.93,3,8.12,7.16-4.77,1.52-8.3,6.69-8.3,12.84a14.28,14.28,0,0,0,4.41,10.6c-.44.23-.93.46-1.35.65-2.21,1-5.27,2.48-7.48,5.36ZM36.75,60H21c0-11.52,10.11-11.51,12.36-14.52l.26-1.37c-3.15-1.6-5.38-5.45-5.38-10,0-5.94,3.86-10.75,8.62-10.75s8.62,4.81,8.62,10.75c0,4.47-2.19,8.3-5.3,9.92l.29,1.56C42.95,48.49,52.72,48.67,52.72,60h-16ZM81,70.5l-2.19,2.19-4.45-4.45-1.69,1.69,4.45,4.45L66.19,85.3l-4.45-4.45L60,82.54,64.5,87l-1.09,1.09,0,0a.86.86,0,0,1-.55.4l-4.15.93-.19,0a.86.86,0,0,1-.84-1.05l.93-4.15a.87.87,0,0,1,.4-.55l0,0L76.54,66a.66.66,0,0,1,.93,0L81,69.56A.66.66,0,0,1,81,70.5Z"/></g></g></svg>