<svg xmlns="http://www.w3.org/2000/svg" viewBox="0 0 91.38 100"><defs><style>.cls-1{fill:#1a237e;}</style></defs><title>Asset 11</title><g id="Layer_2" data-name="Layer 2"><g id="Layer_1-2" data-name="Layer 1"><path class="cls-1" d="M68.47,53.92V15.8a5.06,5.06,0,0,0-1.56-3.7,5.06,5.06,0,0,0-3.7-1.56H57.93v-4A6.34,6.34,0,0,0,56,1.93,6.34,6.34,0,0,0,51.35,0H48.72a6.34,6.34,0,0,0-4.65,1.93,6.34,6.34,0,0,0-1.93,4.65v4H26.33v-4A6.34,6.34,0,0,0,24.4,1.93,6.34,6.34,0,0,0,19.75,0H17.12a6.34,6.34,0,0,0-4.65,1.93,6.34,6.34,0,0,0-1.93,4.65v4H5.27a5.06,5.06,0,0,0-3.7,1.56A5.06,5.06,0,0,0,0,15.8V68.47a5.06,5.06,0,0,0,1.56,3.7,5.06,5.06,0,0,0,3.7,1.56H45.52A23,23,0,1,0,68.47,53.92ZM63.2,54H51.35V40.82H63.2Zm-5.69,2.63a23.12,23.12,0,0,0-6.16,4.78V56.62ZM63.2,26.33V38.18H51.35V26.33ZM47.4,6.58a1.33,1.33,0,0,1,1.32-1.32h2.63a1.33,1.33,0,0,1,1.32,1.32V18.43a1.33,1.33,0,0,1-1.32,1.32H48.72a1.33,1.33,0,0,1-1.32-1.32ZM35.55,26.33H48.72V38.18H35.55Zm0,14.48H48.72V54H35.55ZM17.12,68.47H5.27V56.62H17.12Zm0-14.48H5.27V40.82H17.12Zm0-15.8H5.27V26.33H17.12Zm-.93-18.82a1.26,1.26,0,0,1-.39-.93V6.58a1.33,1.33,0,0,1,1.32-1.32h2.63a1.34,1.34,0,0,1,1.32,1.32V18.43a1.34,1.34,0,0,1-1.32,1.32H17.12A1.26,1.26,0,0,1,16.19,19.36ZM32.92,68.47H19.75V56.62H32.92Zm0-14.48H19.75V40.82H32.92Zm0-15.8H19.75V26.33H32.92Zm2.63,30.28V56.62H48.72v8.26a23,23,0,0,0-1.8,3.59Zm43.74,2L77.1,72.69l-4.45-4.45L71,69.92l4.45,4.45L64.48,85.3,60,80.85l-1.69,1.69L62.79,87,61.7,88.08l0,0a.86.86,0,0,1-.55.4L57,89.38l-.19,0a.86.86,0,0,1-.84-1.05l.93-4.15a.87.87,0,0,1,.4-.55l0,0L74.83,66a.66.66,0,0,1,.93,0l3.52,3.52A.66.66,0,0,1,79.29,70.5Z"/></g></g></svg>