<svg xmlns="http://www.w3.org/2000/svg" viewBox="0 0 50 50"><defs><style>.cls-1{fill:#fff;}</style></defs><title>Asset 4</title><g id="Layer_2" data-name="Layer 2"><g id="Layer_2-2" data-name="Layer 2"><path class="cls-1" d="M21.65,29.14l-.5-.34a5.7,5.7,0,0,0-1.6-.24h-.07c-2.53,0-4.75,1.53-4.75,3.28,0,1.9,1.9,3.39,4.33,3.39,3.2,0,4.82-1.11,4.82-3.28a2.73,2.73,0,0,0-.08-.63C23.6,30.47,22.82,29.94,21.65,29.14Z"/><path class="cls-1" d="M19.86,22.51h0a1.94,1.94,0,0,0,1.51-.69,4,4,0,0,0,.73-3.1c-.29-2.2-1.86-4-3.5-4.08h-.07a1.94,1.94,0,0,0-1.49.69,3.85,3.85,0,0,0-.71,3c.29,2.2,1.9,4.1,3.5,4.15Z"/><path class="cls-1" d="M25,0A25,25,0,1,0,50,25,25,25,0,0,0,25,0ZM22.12,37.17a11,11,0,0,1-3,.41,13.93,13.93,0,0,1-3.41-.41,6.62,6.62,0,0,1-4.32-2.79,3.55,3.55,0,0,1-.46-1.75,4.44,4.44,0,0,1,.45-1.89c1.13-2.42,4.13-4,7.44-4h.09a3,3,0,0,1-.4-1.48,3.15,3.15,0,0,1,.1-.79,6,6,0,0,1-6.08-6c0-2.37,1.89-4.68,4.6-5.61a7.51,7.51,0,0,1,2.45-.42H27a.58.58,0,0,1,.34,1.06l-1.66,1.2a.59.59,0,0,1-.34.11h-.6a5.79,5.79,0,0,1,1.22,3.71,5.54,5.54,0,0,1-2.32,4.34c-1.16.9-1.2,1.15-1.2,1.67a4.94,4.94,0,0,0,1.71,1.84A5.75,5.75,0,0,1,27,31.64C27,34.15,25.06,36.32,22.12,37.17ZM38.91,24.42a.59.59,0,0,1-.58.58H34.1v4.23a.58.58,0,0,1-.58.58h-1.2a.58.58,0,0,1-.59-.58V25H27.5a.58.58,0,0,1-.58-.58v-1.2a.59.59,0,0,1,.58-.59h4.22V18.41a.58.58,0,0,1,.59-.58h1.2a.58.58,0,0,1,.58.58v4.22h4.22a.59.59,0,0,1,.58.58v1.2Z"/></g></g></svg>