<svg xmlns="http://www.w3.org/2000/svg" viewBox="0 0 24 24"><defs><style>.cls-1{fill:#1a237e;}</style></defs><title>Asset 13</title><g id="Layer_2" data-name="Layer 2"><g id="Layer_2-2" data-name="Layer 2"><path class="cls-1" d="M22.39,6A12,12,0,0,0,18,1.61,11.74,11.74,0,0,0,12,0,11.74,11.74,0,0,0,6,1.61,12,12,0,0,0,1.61,6,11.74,11.74,0,0,0,0,12a11.74,11.74,0,0,0,1.61,6A12,12,0,0,0,6,22.39,11.74,11.74,0,0,0,12,24a11.74,11.74,0,0,0,6-1.61A12,12,0,0,0,22.39,18,11.74,11.74,0,0,0,24,12,11.74,11.74,0,0,0,22.39,6ZM10,3a.48.48,0,0,1,.5-.5h3A.48.48,0,0,1,14,3V5.5a.48.48,0,0,1-.5.5h-3a.48.48,0,0,1-.5-.5Zm6,16.5a.48.48,0,0,1-.5.5h-7a.48.48,0,0,1-.5-.5V17a.48.48,0,0,1,.5-.5H10v-5H8.5A.48.48,0,0,1,8,11V8.5A.48.48,0,0,1,8.5,8h5a.48.48,0,0,1,.5.5v8h1.5a.48.48,0,0,1,.5.5v2.5h0Z"/></g></g></svg>