<svg xmlns="http://www.w3.org/2000/svg" viewBox="0 0 24 24.36"><defs><style>.cls-1{fill:#1a237e;}</style></defs><title>Asset 15</title><g id="Layer_2" data-name="Layer 2"><g id="Layer_2-2" data-name="Layer 2"><g id="settings"><path class="cls-1" d="M21,13.47c0-.37.12-.73.12-1.22A3.77,3.77,0,0,0,21,11l2.57-2.08a.58.58,0,0,0,.12-.73L21.23,3.92a.69.69,0,0,0-.73-.12L17.43,5a11.62,11.62,0,0,0-2.08-1.22L14.86.61A.49.49,0,0,0,14.37,0H9.47c-.24,0-.61.24-.61.49L8.37,3.79A9.23,9.23,0,0,0,6.29,5L3.35,3.79A.76.76,0,0,0,2.5,4L0,8.32c-.12.12,0,.49.24.73l2.57,2c0,.37-.12.73-.12,1.22a3.77,3.77,0,0,0,.12,1.22L.29,15.55a.58.58,0,0,0-.12.73l2.45,4.28a.69.69,0,0,0,.73.12l3.06-1.22a11.62,11.62,0,0,0,2.08,1.22L9,23.87a.56.56,0,0,0,.61.49h4.9c.24,0,.61-.24.61-.49l.49-3.18a11.62,11.62,0,0,0,2.08-1.22l3.06,1.22a.59.59,0,0,0,.73-.24l2.45-4.28c.12-.24.12-.61-.12-.73Zm-9.06,3.06a4.28,4.28,0,1,1,4.28-4.28A4.34,4.34,0,0,1,11.92,16.53Z"/></g></g></g></svg>