<svg xmlns="http://www.w3.org/2000/svg" viewBox="0 0 24 24"><defs><style>.cls-1{fill:#1a237e;}</style></defs><title>Asset 14</title><g id="Layer_2" data-name="Layer 2"><g id="Layer_2-2" data-name="Layer 2"><g id="account-box"><path class="cls-1" d="M0,2.67V21.33A2.67,2.67,0,0,0,2.67,24H21.33A2.67,2.67,0,0,0,24,21.33V2.67A2.67,2.67,0,0,0,21.33,0H2.67A2.67,2.67,0,0,0,0,2.67ZM16,8a3.93,3.93,0,0,1-4,4A3.93,3.93,0,0,1,8,8a3.93,3.93,0,0,1,4-4A3.93,3.93,0,0,1,16,8ZM4,18.67c0-2.67,5.33-4.13,8-4.13s8,1.47,8,4.13V20H4Z"/></g></g></g></svg>