<svg xmlns="http://www.w3.org/2000/svg" viewBox="0 0 100 100"><defs><style>.cls-1{fill:#fff;}</style></defs><title>Asset 2</title><g id="Layer_2" data-name="Layer 2"><g id="Layer_1-2" data-name="Layer 1"><path class="cls-1" d="M50,0a50,50,0,1,0,50,50A50.06,50.06,0,0,0,50,0ZM72.31,38.56c0,.5,0,1,0,1.49,0,15.21-11.57,32.74-32.75,32.74A32.55,32.55,0,0,1,22,67.62a23.24,23.24,0,0,0,17-4.77,11.52,11.52,0,0,1-10.75-8,11.55,11.55,0,0,0,5.2-.19,11.51,11.51,0,0,1-9.23-11.28s0-.1,0-.15a11.46,11.46,0,0,0,5.21,1.44,11.53,11.53,0,0,1-3.56-15.36,32.68,32.68,0,0,0,23.72,12,11.52,11.52,0,0,1,19.61-10.5A23,23,0,0,0,76.5,28a11.56,11.56,0,0,1-5.07,6.37A22.88,22.88,0,0,0,78,32.61,23.15,23.15,0,0,1,72.31,38.56Z"/></g></g></svg>